<svg id="Layer_1" data-name="Layer 1" xmlns="http://www.w3.org/2000/svg" viewBox="0 0 112.64 39.25"><defs><style>.cls-1{fill:#f59d07;}.cls-2{fill:#f7a231;}.cls-3{fill:#fbb03b;}</style></defs><title>MatchForecast</title><path class="cls-1" d="M52.89,8.63,49.82,1.71v5.5a1.75,1.75,0,0,0,.16.94.86.86,0,0,0,.69.26H51v.22H48.18V8.41h.28a.8.8,0,0,0,.72-.32,1.92,1.92,0,0,0,.13-.88V1.83A1.94,1.94,0,0,0,49.19,1a.62.62,0,0,0-.11-.17.7.7,0,0,0-.19-.13A1.11,1.11,0,0,0,48.6.66a2.5,2.5,0,0,0-.42,0V.4h2.25l2.89,6.44L56.15.4H58.4V.63h-.27a.8.8,0,0,0-.72.31,1.84,1.84,0,0,0-.13.89V7.21a1.66,1.66,0,0,0,.16.94.86.86,0,0,0,.69.26h.27v.22H55V8.41h.28A.8.8,0,0,0,56,8.09a1.79,1.79,0,0,0,.13-.88V1.71L53.09,8.63Z"/><path class="cls-1" d="M62.07,7.83a8.16,8.16,0,0,1-1,.77,1.5,1.5,0,0,1-.67.15,1.45,1.45,0,0,1-.51-.1,1.08,1.08,0,0,1-.4-.3,1.13,1.13,0,0,1-.27-.45,1.54,1.54,0,0,1-.1-.58,1.51,1.51,0,0,1,.06-.44,1.35,1.35,0,0,1,.19-.38,1.62,1.62,0,0,1,.31-.34,4.38,4.38,0,0,1,.45-.33,12.67,12.67,0,0,1,2-.88V4.73A2.8,2.8,0,0,0,62,4a1.25,1.25,0,0,0-.19-.45.64.64,0,0,0-.31-.23,1.18,1.18,0,0,0-.43-.07.88.88,0,0,0-.33.06.74.74,0,0,0-.26.15.6.6,0,0,0-.16.22.53.53,0,0,0,0,.25v.35a.62.62,0,0,1-.14.43.46.46,0,0,1-.36.15.45.45,0,0,1-.35-.15.61.61,0,0,1-.14-.44,1,1,0,0,1,.13-.5,1.35,1.35,0,0,1,.38-.45A2,2,0,0,1,60.42,3a2.64,2.64,0,0,1,.83-.12,2.61,2.61,0,0,1,1.06.19,1.17,1.17,0,0,1,.62.65A3.35,3.35,0,0,1,63,4.81V6.7c0,.27,0,.48,0,.65a2.16,2.16,0,0,0,0,.33.46.46,0,0,0,.09.24.25.25,0,0,0,.16.06l.11,0a.37.37,0,0,0,.12-.07l.17-.15L64,7.49v.34c-.44.61-.86.91-1.26.91a.58.58,0,0,1-.45-.2A1.1,1.1,0,0,1,62.07,7.83Zm0-.39V5.32l-.73.31a3.16,3.16,0,0,0-.41.2,2,2,0,0,0-.66.57,1,1,0,0,0-.2.63,1.25,1.25,0,0,0,.06.4,1.19,1.19,0,0,0,.19.33.75.75,0,0,0,.26.21A.71.71,0,0,0,60.9,8,2.08,2.08,0,0,0,62.07,7.44Z"/><path class="cls-1" d="M65.92,1.24V3.07h1.25V3.5H65.92V7.1a2,2,0,0,0,0,.46.71.71,0,0,0,.11.28.36.36,0,0,0,.16.14.54.54,0,0,0,.22,0,.65.65,0,0,0,.37-.12.83.83,0,0,0,.29-.37h.22a2.28,2.28,0,0,1-.25.52,1.71,1.71,0,0,1-.33.37,1.2,1.2,0,0,1-.37.23,1.12,1.12,0,0,1-.4.07,1.1,1.1,0,0,1-.53-.15,1,1,0,0,1-.22-.19.72.72,0,0,1-.16-.25A2.49,2.49,0,0,1,65,7.24V3.5H64.1V3.3a2.27,2.27,0,0,0,.66-.46,3.8,3.8,0,0,0,.6-.75c0-.08.1-.19.16-.33s.14-.31.21-.52Z"/><path class="cls-1" d="M72.25,6.52a3.53,3.53,0,0,1-.33,1,3,3,0,0,1-.52.71,1.86,1.86,0,0,1-.66.44A1.92,1.92,0,0,1,70,8.8a2,2,0,0,1-.86-.2A2.26,2.26,0,0,1,68.42,8a3.19,3.19,0,0,1-.51-.93,3.86,3.86,0,0,1-.18-1.22,3.29,3.29,0,0,1,.2-1.2,2.89,2.89,0,0,1,.56-.93,2.55,2.55,0,0,1,.81-.61,2.38,2.38,0,0,1,1-.21A2.09,2.09,0,0,1,71,3a2,2,0,0,1,.57.32,1.4,1.4,0,0,1,.38.43.91.91,0,0,1,.14.46.54.54,0,0,1-.14.38.58.58,0,0,1-.41.14,1,1,0,0,1-.25,0,.45.45,0,0,1-.19-.11A.49.49,0,0,1,71,4.4,1.09,1.09,0,0,1,70.9,4a.8.8,0,0,0-.23-.54.86.86,0,0,0-.58-.19,1.14,1.14,0,0,0-.61.17,1.39,1.39,0,0,0-.44.43,2.12,2.12,0,0,0-.27.65,3.21,3.21,0,0,0-.09.78,3.59,3.59,0,0,0,.12.93,2.82,2.82,0,0,0,.34.81,1.84,1.84,0,0,0,.55.56,1.23,1.23,0,0,0,.73.22,1.78,1.78,0,0,0,.47-.07,1.17,1.17,0,0,0,.43-.22,1.65,1.65,0,0,0,.39-.43,4.09,4.09,0,0,0,.37-.7Z"/><path class="cls-1" d="M74.6,0V4.07l.37-.4a3.41,3.41,0,0,1,.39-.37A1.83,1.83,0,0,1,75.82,3a1.32,1.32,0,0,1,.57-.11,1.18,1.18,0,0,1,.7.19,1.31,1.31,0,0,1,.42.51,2.53,2.53,0,0,1,.21.72,7.89,7.89,0,0,1,0,.84V7.38c0,.18,0,.34,0,.47a.71.71,0,0,0,.08.31.51.51,0,0,0,.24.18,1.61,1.61,0,0,0,.47.07v.22H75.93V8.41h.12a1.44,1.44,0,0,0,.41,0,.45.45,0,0,0,.23-.17.71.71,0,0,0,.09-.32c0-.13,0-.3,0-.5V5.17c0-.17,0-.35,0-.53a1.52,1.52,0,0,0-.09-.49.72.72,0,0,0-.25-.36.78.78,0,0,0-.51-.15,1,1,0,0,0-.3,0,1,1,0,0,0-.3.12A2.19,2.19,0,0,0,75,4a3.76,3.76,0,0,0-.39.4V7.38c0,.19,0,.35,0,.46a.83.83,0,0,0,0,.26.25.25,0,0,0,.09.13l.14.09a.48.48,0,0,0,.23.07,1.89,1.89,0,0,0,.35,0v.22H72.8V8.41a2.12,2.12,0,0,0,.38,0,.43.43,0,0,0,.25-.13.64.64,0,0,0,.15-.32,2.79,2.79,0,0,0,0-.56v-5a9.14,9.14,0,0,0,0-1.17.6.6,0,0,0-.14-.3A.36.36,0,0,0,73.2.8a1.4,1.4,0,0,0-.4.09L72.72.68,74.33,0Z"/><path class="cls-1" d="M66.07,23.69c.37.88-1.8,2.87-1.26,4.06.11.26-.16.28-.43.18-2-.78-.23-3.34-.09-3.72-.58.24-1.29.5-2,.73l-2.13,5.75c-1.57,3.47-4.44,8.56-8.66,8.56-3.57,0-3.86-4.64-3.21-7.34a10.71,10.71,0,0,1,3.23-5.37A4.29,4.29,0,0,1,55,25.32a2.31,2.31,0,0,1,1.62,3.36c-.18.42-.5.38-.43-.09a1.52,1.52,0,0,0-1-1.83,2.5,2.5,0,0,0-2.09.67c-1.77,1.41-3.49,5.33-3.51,7.56,0,4.68,3.4,3.2,5.39.82a20.32,20.32,0,0,0,3.15-5.41l1.87-5a8.19,8.19,0,0,1-2.1,0c-1.75-.28-1.71-1.17-1.34-1,.94.53,2.38.26,3.84-.18l1.31-3.54c.69-1.81,1.38-3.39,3.41-3.9.89-.22.85.36.33.87-1.19,1.16-2,4.14-2.69,5.83C63.56,23.29,65.59,22.66,66.07,23.69Zm-8.77-9c-4.84.81-5.48,7.44-2.42,7.32,1.86-.06,3.34-3.12,2.19-5.17-.16-.26.19-.46.44-.26,2.05,1.51.84,7.2-2.59,7.2-2.83,0-3.6-3.72-2.94-5.75a8,8,0,0,1,7.79-5.63c4.1,0,8.63,2.49,12.95,2.17a6.69,6.69,0,0,0,4.74-2,.58.58,0,0,1,.37-.18c.19,0,.27.22.15.48-1.84,3.3-4.55,3.86-8.1,3.86C66.59,16.79,61.27,14.06,57.3,14.74Z"/><path class="cls-1" d="M79.27,29.48c-.71,1.21-1.73,3-3.33,3-1.13,0-1.53-1.29-1.07-2.52.59-1.65,1.94-3.76,2.53-5.27a4.28,4.28,0,0,0,.25-.74,2,2,0,0,1-2,.82c-.57,1-1.15,2-1.46,2.54-1.19,2.05-1.88,3.72-4.59,3.52A3.87,3.87,0,0,1,66.9,32.5c-1.71,0-2.19-2-1.67-3.4a4.73,4.73,0,0,1,1-1.51c-.19-2,1.69-5,3.74-5s1.92,3.66,1.46,5.19a9.28,9.28,0,0,1-1.21,2.39c1.52.06,2.33-1.44,3-2.61s1.19-2.15,1.65-3.08c-2-1.55.44-6,1.73-6s.77,2.39.53,3.1a14.78,14.78,0,0,1-.76,1.95,1.62,1.62,0,0,0,.44,0c.82-.14,1-.91,1.94-.91,1.28,0,.79,1,.5,1.71-.48,1.19-2.75,5.37-2.71,6.25.06,1,1.06.41,1.48,0a7.12,7.12,0,0,0,1-1.28C79.13,29,79.5,29.1,79.27,29.48Zm-11.18.92a3.71,3.71,0,0,1-1.65-1.85,3.27,3.27,0,0,0-.43.91C65.52,31.09,66.82,31.67,68.09,30.4Zm2-5.4c0-.49-.26-1.61-.82-1.59S68,24.75,67.76,25.26a5.07,5.07,0,0,0-.34,1.34,3,3,0,0,1,1.67-.48c.42,0,.61.58.23.56a2.72,2.72,0,0,0-1.92.75,2.54,2.54,0,0,0,1.3,2.19A8.31,8.31,0,0,0,70.12,25Zm6.38-4.87c-.44-.14-1.54,1.49-.9,2.77C75.87,22.32,76.83,20.21,76.5,20.13Z"/><path class="cls-1" d="M86.45,29.48a5.87,5.87,0,0,1-4.86,3A2.66,2.66,0,0,1,79,30.28a5.19,5.19,0,0,1,.37-2.85A10.57,10.57,0,0,1,81.82,24a4.58,4.58,0,0,1,2.61-1.39c1.21,0,1.61,1,1.56,2a5.64,5.64,0,0,1-2.5,4c-1.15.75-2.11.53-2.59-.52-.42,1.31-.39,3,1,3.4,1.62.54,3.4-.86,4.21-2.19C86.31,29,86.66,29.1,86.45,29.48Zm-3.69-2.17a7.62,7.62,0,0,0,2-3.28c.32-1.27-.41-.9-1-.26a14.18,14.18,0,0,0-1.88,2.37C81,27.61,81.4,28.47,82.76,27.31Z"/><path class="cls-1" d="M89.12,31.45c1.59.54,3.4-.86,4.18-2.19.16-.24.5-.16.29.22a5.84,5.84,0,0,1-4.86,3c-2.71,0-3-3-2.19-5.07A10.33,10.33,0,0,1,89,24a4.52,4.52,0,0,1,2.61-1.39,1.31,1.31,0,0,1,1.31.75c.5,1,0,3.09-1.13,3.45-.16,0-.6.17-.23-.3,1-1.42,1.44-3.9-.37-2.67a8.86,8.86,0,0,0-2.94,3.78C87.7,28.9,87.41,30.91,89.12,31.45Z"/><path class="cls-1" d="M98.51,30.08c-.33.85,0,1.15.57.79a5.61,5.61,0,0,0,1.41-1.61c.15-.26.5-.16.28.2-.59,1-1.74,3-3.09,3-1,0-1.11-.93-1-1.83,0,0,0,0,0,.06-.65,1-1.4,1.77-2,1.77-1,0-1.37-.89-1.42-1.91a11.12,11.12,0,0,1,2.42-6.82,2.77,2.77,0,0,1,1.86-1.21c1,0,1.17,1.07,1.17,1.87,0,.24,0,.47-.06.71l.73-2a.82.82,0,0,1,.81-.61h.46c.38,0,.61.08.4.63C99,28.74,99.87,26.4,98.51,30.08ZM97,24.49a11.47,11.47,0,0,0-2.11,5.39c-.12,2,1.15,1.07,2-.54a10.5,10.5,0,0,0,1.21-3.14C98.41,24.53,98,23.33,97,24.49Z"/><path class="cls-1" d="M105.52,29.6a4.83,4.83,0,0,0-2.27.2,3.62,3.62,0,0,1,0,.66,2.35,2.35,0,0,1-2.34,2c-.56,0-1.44-1.25.88-2.62-.06-.38-.15-1-.23-1.43a6.3,6.3,0,0,0-.79,1c-.15.16-.44,0-.23-.3a9.35,9.35,0,0,1,.92-1.11,5.69,5.69,0,0,1-.26-2.75c.3-1.23,1.74-2.76,3-2.76,1.46,0,1.58,1.23,1.08,2.36A10.35,10.35,0,0,1,103,27.53c.08.6.18,1.21.25,1.77a5.36,5.36,0,0,1,2.36-.1C105.77,29.24,105.79,29.62,105.52,29.6Zm-3.65.92a3.18,3.18,0,0,0-.62.55c-.27.34-.3.7-.13.8s.48-.18.65-.62A1.51,1.51,0,0,0,101.87,30.52Zm1-3.8c.29-.28.52-.54.65-.68a4,4,0,0,0,1-1.53c.15-.74-.23-.88-.79-.38A3,3,0,0,0,102.85,26.72Z"/><path class="cls-1" d="M107.63,21.84h-.94a.3.3,0,0,1,0-.6h1.17l3-8.17a.86.86,0,0,1,.94-.62h.29c.43,0,.66.08.43.64l-3,8.15h1a.3.3,0,0,1,0,.6h-1.25L107.05,28c-.27.73-.59,1.49-.82,2.21s.09,1,.61.69a5,5,0,0,0,1.4-1.61c.16-.26.5-.16.29.2-.57,1-1.75,3-3.07,3-1.58,0-1-2.16-.64-3,.58-1.55.64-1.73.91-2.41Z"/><path class="cls-2" d="M8.53,22.16A11,11,0,0,1,16.28,8.61a11.2,11.2,0,0,1,3-.39V.07A57.24,57.24,0,0,0,5.63,1.67C.89,3,.16,3.7.16,3.74c0,.4,0,6.81,0,7.21v.65C.34,28.58,19,39.44,19.18,39.23l.08-8.93A11,11,0,0,1,8.53,22.16Z"/><path class="cls-3" d="M19.13,25.61a1,1,0,0,1,.51-.71l4.23-2.18a1,1,0,0,1,.82,0l1.85.81a1,1,0,0,1,.57,1L27,25.8a9.53,9.53,0,0,0,1-1.37,10.32,10.32,0,0,0,1-2.29L28,23a1,1,0,0,1-1.18.12L24.92,22a1,1,0,0,1-.5-.72l-.81-5a1,1,0,0,1,.28-.88l1.3-1.31a1,1,0,0,1,1.08-.24l1.89.7a10.22,10.22,0,0,0-3.87-4.13h0L25,12.74a.8.8,0,0,1-.2.79l-1.58,1.59a.79.79,0,0,1-.68.23l-5.18-.8s0-.05,0-.07l-1.69-2.67a.78.78,0,0,1,.05-.91L16.8,9.43a.89.89,0,0,1,.29-.22,10.22,10.22,0,0,0-5.53,3l2.61-.31a.93.93,0,0,1,.89.42l1.24,1.95a.94.94,0,0,1,0,.92l-2.59,5.13a0,0,0,0,0,0,0l-3.88,1-.09.05-1-1.37A10.3,10.3,0,0,0,9.83,24l0-.22a1.16,1.16,0,0,1,0-.18h0l0-.91a.73.73,0,0,1,.54-.69l3.21-.84a.68.68,0,0,1,.69.19l3.44,3.41a1.41,1.41,0,0,1,.4.76A9.81,9.81,0,0,1,18,28.32c-.31.52-1.8.91-1.8.91a10.37,10.37,0,0,0,4.79.18,3.82,3.82,0,0,1-1.73-1.13C18.86,27.62,19.13,25.61,19.13,25.61Z"/><path class="cls-3" d="M38.2,3.74s-2.72-1-7.45-2.35A52,52,0,0,0,19.21.07s0,3,0,8.15a11,11,0,0,1,0,22.08l-.09,8.93h0c.2.21,18.84-10.65,19.07-27.63V11C38.24,10.55,38.22,4.14,38.2,3.74Z"/></svg>