<svg id="Layer_1" data-name="Layer 1" xmlns="http://www.w3.org/2000/svg" viewBox="0 0 522.55 800"><defs><style>.cls-1{fill:#f7a231;}.cls-2{fill:#f59d07;}.cls-3{fill:#fbb03b;}</style></defs><title>MatchForecastlogo</title><path class="cls-1" d="M166.26,508A104.54,104.54,0,0,1,267.74,376v-77.2c-53.14,0-105.87,8.5-128.9,15.1C93.91,326.79,87,333.22,87,333.55c-.25,3.82-.39,64.53-.45,68.3V408c2.12,160.84,178.68,263.7,180.55,261.65l.8-84.52A104.57,104.57,0,0,1,166.26,508Z"/><path class="cls-2" d="M111,136.64,93.17,97.72v30.9q0,4.27.92,5.32a5,5,0,0,0,4,1.44h1.64v1.26H83.62v-1.26h1.64a4.69,4.69,0,0,0,4.16-1.78q.75-1,.75-5V98.4A10.94,10.94,0,0,0,89.49,94a3.68,3.68,0,0,0-.65-.94,3.35,3.35,0,0,0-1.11-.73A7.42,7.42,0,0,0,86,91.82a15,15,0,0,0-2.42-.17V90.39h13.1l16.78,36.19L130,90.39H143.1v1.26h-1.6c-2,0-3.38.59-4.19,1.77q-.75,1.06-.75,5v30.22c0,2.85.31,4.62.95,5.32a5,5,0,0,0,4,1.44h1.6v1.26H123.46v-1.26h1.63c2,0,3.35-.59,4.17-1.78q.75-1,.75-5V97.72l-17.84,38.92Z"/><path class="cls-2" d="M164.46,132.14a45.52,45.52,0,0,1-6,4.29,9.06,9.06,0,0,1-3.92.86,7.64,7.64,0,0,1-3-.58,6.73,6.73,0,0,1-2.35-1.64,7.66,7.66,0,0,1-1.56-2.54,9.35,9.35,0,0,1-.56-3.29,8,8,0,0,1,.36-2.46,7.89,7.89,0,0,1,1.07-2.13,10.6,10.6,0,0,1,1.83-1.93,20.41,20.41,0,0,1,2.61-1.8,73.11,73.11,0,0,1,11.53-5v-1.23a16.47,16.47,0,0,0-.4-3.92,6.57,6.57,0,0,0-1.12-2.51,4,4,0,0,0-1.83-1.33,7.2,7.2,0,0,0-2.45-.39,5.48,5.48,0,0,0-2,.32,5,5,0,0,0-1.49.85,3.71,3.71,0,0,0-.94,1.23,3.45,3.45,0,0,0-.32,1.42l.07,2a3.44,3.44,0,0,1-.8,2.43,2.79,2.79,0,0,1-2.1.85,2.65,2.65,0,0,1-2.06-.89,3.45,3.45,0,0,1-.81-2.42,5.85,5.85,0,0,1,.77-2.83,8.18,8.18,0,0,1,2.22-2.52,11.14,11.14,0,0,1,3.58-1.81,15.77,15.77,0,0,1,4.86-.68,16,16,0,0,1,6.14,1,6.7,6.7,0,0,1,3.65,3.65,18.86,18.86,0,0,1,.61,6v10.6c0,1.5,0,2.71,0,3.62s.08,1.53.12,1.87a2.23,2.23,0,0,0,.57,1.33,1.32,1.32,0,0,0,.9.35,2,2,0,0,0,.65-.11,2.34,2.34,0,0,0,.71-.41,8.71,8.71,0,0,0,1-.83l1.4-1.38v1.91q-3.85,5.12-7.3,5.11a3.36,3.36,0,0,1-2.66-1.16A6,6,0,0,1,164.46,132.14Zm0-2.22V118c-1.73.68-3.15,1.26-4.25,1.74a21.64,21.64,0,0,0-2.41,1.16,11.89,11.89,0,0,0-3.85,3.15,6,6,0,0,0-1.16,3.56,6.4,6.4,0,0,0,.39,2.27,5.88,5.88,0,0,0,1.06,1.81,4.7,4.7,0,0,0,1.55,1.19,4.14,4.14,0,0,0,1.84.43Q160.23,133.33,164.46,129.92Z"/><path class="cls-2" d="M186.83,95.13V105.4h7.3v2.38h-7.3V128a11.16,11.16,0,0,0,.24,2.54,4.45,4.45,0,0,0,.65,1.59,2.05,2.05,0,0,0,1,.8,3.3,3.3,0,0,0,1.24.22,3.91,3.91,0,0,0,2.19-.7,4.43,4.43,0,0,0,1.63-2.06h1.33a12.55,12.55,0,0,1-1.48,2.93,9.71,9.71,0,0,1-1.89,2.1,7.4,7.4,0,0,1-2.18,1.26,6.6,6.6,0,0,1-2.32.43,5.81,5.81,0,0,1-1.59-.22,5.59,5.59,0,0,1-1.5-.65,6,6,0,0,1-1.28-1,4.74,4.74,0,0,1-.92-1.43,13.15,13.15,0,0,1-.72-5v-21h-4.94v-1.12a12.9,12.9,0,0,0,3.83-2.54,20.15,20.15,0,0,0,3.5-4.25c.25-.43.56-1,.94-1.82s.79-1.76,1.24-2.92Z"/><path class="cls-2" d="M223.7,124.77a20.06,20.06,0,0,1-1.94,5.49,16.21,16.21,0,0,1-3,4,12.21,12.21,0,0,1-3.82,2.47,11.38,11.38,0,0,1-4.3.83,11.22,11.22,0,0,1-5-1.16,12.79,12.79,0,0,1-4.21-3.3,16.61,16.61,0,0,1-2.92-5.21,20.21,20.21,0,0,1-1.09-6.87,18.44,18.44,0,0,1,1.19-6.73,16.31,16.31,0,0,1,3.23-5.24,14.22,14.22,0,0,1,4.74-3.39,13.89,13.89,0,0,1,5.75-1.21,12.44,12.44,0,0,1,4.21.68,11.52,11.52,0,0,1,3.32,1.77,8.88,8.88,0,0,1,2.2,2.42,5,5,0,0,1,.8,2.63,2.84,2.84,0,0,1-.81,2.1,3.26,3.26,0,0,1-2.36.8,6.07,6.07,0,0,1-1.45-.17,2.78,2.78,0,0,1-1.16-.62,3.16,3.16,0,0,1-.8-1.22,7.62,7.62,0,0,1-.41-2,4.37,4.37,0,0,0-1.34-3,4.9,4.9,0,0,0-3.33-1,6.91,6.91,0,0,0-3.55.9,8.31,8.31,0,0,0-2.59,2.46,11.7,11.7,0,0,0-1.59,3.62,17.64,17.64,0,0,0-.52,4.38,20.05,20.05,0,0,0,.69,5.27,15.64,15.64,0,0,0,2,4.52,10.71,10.71,0,0,0,3.19,3.17,7.72,7.72,0,0,0,4.26,1.19,10.64,10.64,0,0,0,2.73-.35,7.67,7.67,0,0,0,2.49-1.25,10.88,10.88,0,0,0,2.3-2.44,20.89,20.89,0,0,0,2.13-3.94Z"/><path class="cls-2" d="M237.34,88.14V111c.73-.7,1.45-1.44,2.17-2.22a19.9,19.9,0,0,1,2.3-2.11,11.78,11.78,0,0,1,2.68-1.57,8.35,8.35,0,0,1,3.29-.61,7,7,0,0,1,4.06,1.07,7.36,7.36,0,0,1,2.46,2.86,13.61,13.61,0,0,1,1.21,4.08,34.38,34.38,0,0,1,.32,4.71v12.38c0,1,0,1.93,0,2.64a3.58,3.58,0,0,0,.48,1.74,2.64,2.64,0,0,0,1.36,1,10.18,10.18,0,0,0,2.75.44v1.23H245.12v-1.23h.72a8.3,8.3,0,0,0,2.39-.27,2.37,2.37,0,0,0,1.29-.94,3.79,3.79,0,0,0,.55-1.79c.07-.75.1-1.69.1-2.83V117.2c0-1,0-2,0-3a9.15,9.15,0,0,0-.5-2.76,4.41,4.41,0,0,0-1.48-2,4.83,4.83,0,0,0-3-.8,8.3,8.3,0,0,0-1.71.19,7.24,7.24,0,0,0-1.79.68,12.14,12.14,0,0,0-2,1.37,25.63,25.63,0,0,0-2.32,2.23v16.51c0,1.11,0,2,.07,2.61a5.57,5.57,0,0,0,.26,1.45,1.52,1.52,0,0,0,.51.75,6.35,6.35,0,0,0,.84.51,3.76,3.76,0,0,0,1.33.39,14.82,14.82,0,0,0,2,.12v1.23H226.91v-1.23a13.81,13.81,0,0,0,2.2-.15,2.65,2.65,0,0,0,1.48-.74,3.42,3.42,0,0,0,.84-1.75,15.85,15.85,0,0,0,.25-3.19V101.3a45.54,45.54,0,0,0-.27-6.58,2.86,2.86,0,0,0-.77-1.67,2.09,2.09,0,0,0-1.41-.44,7.7,7.7,0,0,0-2.32.54L226.43,92l9.35-3.82Z"/><path class="cls-2" d="M187.75,221.24c2.13,4.92-10.5,16.1-7.38,22.8.68,1.46-.89,1.57-2.45,1-11.74-4.36-1.35-18.78-.56-20.9-3.36,1.34-7.49,2.79-11.85,4.13L153.1,260.59c-9.16,19.44-25.82,48.06-50.41,48.06-20.79,0-22.47-26-18.67-41.25a60.05,60.05,0,0,1,18.78-30.18c5.93-4.91,12.75-7.93,20.23-6.81,8.72,1.11,13.31,10.39,9.39,18.89-1,2.34-2.9,2.12-2.46-.56.56-3-.11-8.94-5.58-10.29-3.58-.78-7.94.45-12.19,3.8-10.28,7.94-20.34,30-20.45,42.48-.23,26.27,19.78,18,31.41,4.58,8.38-9.72,15.42-22.58,18.33-30.4l10.84-27.83a49.58,49.58,0,0,1-12.18,0c-10.18-1.57-9.95-6.6-7.83-5.48,5.48,3,13.86,1.45,22.36-1l7.6-19.89c4-10.17,8-19,19.89-21.91,5.14-1.23,4.92,2,1.9,4.92-6.93,6.48-12,23.25-15.65,32.75C173.11,219,185,215.43,187.75,221.24Zm-51.08-50.3c-28.17,4.58-31.86,41.81-14.08,41.14,10.84-.34,19.45-17.55,12.74-29.07-.89-1.45,1.12-2.57,2.57-1.45,12,8.5,4.92,40.46-15.09,40.46-16.43,0-20.9-20.9-17.1-32.3,6.93-20.12,24.59-31.63,45.38-31.63,23.81,0,50.19,14,75.34,12.18,10.95-.78,19.89-3.35,27.6-11.18a3.38,3.38,0,0,1,2.13-1c1.12,0,1.56,1.23.89,2.68-10.73,18.56-26.49,21.68-47.17,21.68C190.77,182.45,159.81,167.14,136.67,170.94Z"/><path class="cls-2" d="M264.53,253.77c-4.13,6.82-10.06,17-19.34,17-6.59,0-8.94-7.27-6.25-14.2,3.46-9.28,11.29-21.12,14.75-29.62.89-2.46,1.68-4.36,1.45-4.13a12,12,0,0,1-11.4,4.58c-3.35,5.81-6.7,11.06-8.49,14.31-6.93,11.51-11,20.9-26.72,19.78-4.47,5-9.83,9.28-16,9.28-10,0-12.74-11.29-9.73-19.12a26.83,26.83,0,0,1,5.59-8.49c-1.11-11.4,9.84-28.28,21.8-28.28s11.18,20.57,8.49,29.17a51.82,51.82,0,0,1-7,13.42c8.83.33,13.53-8,17.66-14.65,3.69-6.14,6.93-12.07,9.62-17.32-11.41-8.72,2.57-33.87,10.06-33.87,7.93,0,4.47,13.41,3.13,17.44A81.26,81.26,0,0,1,247.65,220a10.13,10.13,0,0,0,2.58,0c4.8-.78,5.7-5.14,11.28-5.14,7.49,0,4.59,5.48,2.91,9.61-2.79,6.71-16,30.18-15.76,35.1.34,5.81,6.15,2.35,8.61,0a39.21,39.21,0,0,0,5.59-7.15C263.75,251.08,265.87,251.64,264.53,253.77Zm-65,5.14a21.12,21.12,0,0,1-9.61-10.4,17.78,17.78,0,0,0-2.46,5.15C184.5,262.82,192.1,266.06,199.48,258.91Zm11.85-30.29c-.11-2.8-1.57-9.06-4.81-8.94-3.46,0-7.82,7.48-8.94,10.39a28.22,28.22,0,0,0-2,7.49c3.24-1.79,6.48-2.91,9.72-2.68,2.46,0,3.58,3.24,1.34,3.13a16.29,16.29,0,0,0-11.17,4.24c.44,5.82,2.79,9.39,7.6,12.3C207.64,247.73,211.66,238.12,211.33,228.62Zm37.11-27.39c-2.57-.78-8.95,8.39-5.26,15.54C244.75,213.53,250.34,201.68,248.44,201.23Z"/><path class="cls-2" d="M306.33,253.77c-5.93,9.72-16.66,17-28.28,17-8.61,0-13.86-6.82-14.87-12.52-1.11-5.14.11-11.07,2.13-16,2.79-6.93,8.72-14.75,14.08-19.56,5-4.36,10.73-7.82,15.2-7.82,7,0,9.39,5.48,9.06,11.4-.45,8.94-7.49,17.77-14.54,22.36-6.7,4.24-12.29,3-15.08-2.91-2.46,7.38-2.24,16.65,6.14,19.11,9.39,3,19.79-4.8,24.48-12.29C305.55,251.2,307.56,251.64,306.33,253.77Zm-21.46-12.19c4.69-3.91,9.83-12.07,11.62-18.44,1.9-7.15-2.35-5-6-1.45a79.47,79.47,0,0,0-11,13.3C274.47,243.26,276.93,248.07,284.87,241.58Z"/><path class="cls-2" d="M321.86,264.83c9.28,3,19.78-4.8,24.37-12.29.89-1.34,2.9-.9,1.67,1.23-5.92,9.72-16.54,17-28.27,17-15.76,0-17.33-16.88-12.75-28.51,2.8-6.93,8.72-14.75,14.2-19.56,4.92-4.36,10.62-7.82,15.2-7.82,3.69,0,6.15,1.34,7.6,4.25,2.91,5.7-.22,17.32-6.59,19.33-.9.34-3.47,1-1.35-1.67,6-7.94,8.39-21.91-2.12-15A49.69,49.69,0,0,0,316.72,243C313.59,250.53,311.91,261.81,321.86,264.83Z"/><path class="cls-2" d="M376.51,257.12c-1.9,4.81.12,6.48,3.36,4.47,2.79-1.56,6.48-6.37,8.16-9,.89-1.46,2.9-.9,1.67,1.12-3.46,5.58-10.17,17.1-18,17.1-5.93,0-6.48-5.26-5.59-10.29,0,0-.22.23-.22.34-3.8,5.36-8.16,9.95-11.74,9.95-5.81-.12-7.94-5-8.27-10.73-.9-12.75,6.26-28.84,14.08-38.34,3.58-4,7.27-6.82,10.84-6.82,5.7,0,6.82,6,6.82,10.51,0,1.34-.22,2.68-.33,4l4.24-11.07c1.12-2.68,2.8-3.46,4.7-3.46h2.68c2.24,0,3.58.45,2.35,3.58C379.42,249.63,384.45,236.44,376.51,257.12Zm-8.71-31.41c-5.93,6.93-11.74,21.46-12.3,30.29-.67,11.18,6.71,6,12-3,3.47-5.81,6.26-13.07,7-17.66C376,225.94,373.61,219.23,367.8,225.71Z"/><path class="cls-2" d="M417.31,254.44a29.2,29.2,0,0,0-13.19,1.12,20.46,20.46,0,0,1,0,3.68c-.56,6.82-7.27,11.52-13.64,11.52-3.24,0-8.38-7,5.14-14.76-.33-2.12-.89-5.7-1.34-8.05a40.4,40.4,0,0,0-4.58,5.82c-.9.89-2.57.11-1.34-1.68a50,50,0,0,1,5.36-6.26c-1.56-6.37-2.79-10.73-1.56-15.42,1.79-6.93,10.17-15.54,17.55-15.54,8.49,0,9.16,6.93,6.26,13.3-2.35,5.14-9.39,11-13.53,14.64.45,3.36,1,6.82,1.45,9.95a32.55,32.55,0,0,1,13.75-.56C418.76,252.43,418.87,254.55,417.31,254.44Zm-21.24,5.14a18.88,18.88,0,0,0-3.58,3.13c-1.56,1.9-1.78,3.91-.78,4.47.78.22,2.79-1,3.8-3.46C396.07,262.82,396.07,261.37,396.07,259.58Zm5.7-21.35c1.68-1.56,3-3,3.8-3.8,2.24-2.12,4.92-5.92,5.59-8.61.89-4.13-1.34-4.91-4.58-2.12S401.21,231.3,401.77,238.23Z"/><path class="cls-2" d="M429.6,210.85h-5.48a1.68,1.68,0,0,1,0-3.36h6.82l17.66-45.94c1.23-3.13,3.24-3.46,5.48-3.46h1.68c2.45,0,3.8.44,2.45,3.57l-17.43,45.83h5.92a1.68,1.68,0,1,1,0,3.36h-7.26l-13.19,34.42c-1.57,4.14-3.47,8.39-4.81,12.41-1.45,4.36.56,5.81,3.58,3.91,2.9-1.56,6.48-6.26,8.16-9,.89-1.46,2.9-.9,1.67,1.12-3.35,5.58-10.17,17.1-17.88,17.1-9.17,0-5.59-12.19-3.69-17.1,3.35-8.72,3.69-9.73,5.25-13.53Z"/><path class="cls-3" d="M266.7,540.64a9.08,9.08,0,0,1,4.82-6.71l40-20.62a9.07,9.07,0,0,1,7.83-.24l17.47,7.67a9.09,9.09,0,0,1,5.41,9.11l-1.09,12.67A97.18,97.18,0,0,0,359.2,507.8l-9,8A9.65,9.65,0,0,1,339,516.9l-17.55-10a9.63,9.63,0,0,1-4.73-6.82L309.07,453a9.64,9.64,0,0,1,2.67-8.34l12.32-12.42a9.63,9.63,0,0,1,10.2-2.25l17.93,6.65a97,97,0,0,0-36.67-39.15s0,.07,0,.11L322,418.75a7.55,7.55,0,0,1-1.86,7.51l-15,15.08a7.52,7.52,0,0,1-6.5,2.15l-49-7.55a3.35,3.35,0,0,0-.24-.65l-16-25.26a7.56,7.56,0,0,1,.43-8.68l10.82-13.86a7.74,7.74,0,0,1,2.7-2.16,97.52,97.52,0,0,0-52.38,28.47l24.73-3a8.76,8.76,0,0,1,8.45,4l11.7,18.49a8.77,8.77,0,0,1,.41,8.63L215.7,490.61c0,.07,0,.17-.09.24l-36.74,9.81a3.38,3.38,0,0,0-.83.41l-9.79-13a98,98,0,0,0,10.32,37.07l-.23-2.12a7.83,7.83,0,0,1,.38-1.69l0,0,.25-8.64a6.89,6.89,0,0,1,5.13-6.49c7.94-2,23.27-6.09,30.38-8a6.89,6.89,0,0,1,6.6,1.78l32.59,32.34a14.17,14.17,0,0,1,3.79,7.22s1.56,22.24-1.14,26.76c-3,5-17.05,8.62-17.05,8.62a97.15,97.15,0,0,0,45.33,1.67S272.87,573,268.22,566C264.09,559.7,266.7,540.64,266.7,540.64Z"/><path class="cls-3" d="M447.24,333.54c0-.32-25.7-9.08-70.54-22.27-8-2.37-56.27-12.43-109.31-12.46,0,0,.25,28.23.36,77.18a104.57,104.57,0,0,1,.19,209.13l-.8,84.51h0c1.87,2,178.44-100.81,180.55-261.66v-6.12C447.63,398.08,447.49,337.37,447.24,333.54Z"/></svg>